Coordinates
version=1
nRows=10
nColumns=63
inDegrees=yes

Units are S.I. units (second, meters, Newtons, ...)
If the header above contains a line with 'inDegrees', this indicates whether rotational values are in degrees (yes) or radians (no).

endheader
time	pelvis_tilt	pelvis_list	pelvis_rotation	pelvis_tx	pelvis_ty	pelvis_tz	hip_flexion_r	hip_adduction_r	hip_rotation_r	knee_angle_r	knee_angle_r_beta	ankle_angle_r	subtalar_angle_r	mtp_angle_r	hip_flexion_l	hip_adduction_l	hip_rotation_l	knee_angle_l	knee_angle_l_beta	ankle_angle_l	subtalar_angle_l	mtp_angle_l	L5_S1_Flex_Ext	L5_S1_Lat_Bending	L5_S1_axial_rotation	L4_L5_Flex_Ext	L4_L5_Lat_Bending	L4_L5_axial_rotation	L3_L4_Flex_Ext	L3_L4_Lat_Bending	L3_L4_axial_rotation	L2_L3_Flex_Ext	L2_L3_Lat_Bending	L2_L3_axial_rotation	L1_L2_Flex_Ext	L1_L2_Lat_Bending	L1_L2_axial_rotation	L1_T12_Flex_Ext	L1_T12_Lat_Bending	L1_T12_axial_rotation	Abs_r3	Abs_r2	Abs_r1	Abs_t1	Abs_t2	neck_flexion	neck_bending	neck_rotation	arm_flex_r	arm_add_r	arm_rot_r	elbow_flex_r	pro_sup_r	wrist_flex_r	wrist_dev_r	arm_flex_l	arm_add_l	arm_rot_l	elbow_flex_l	pro_sup_l	wrist_flex_l	wrist_dev_l
     11.23333333	     -0.82338144	     -2.28406262	     -5.08302027	     -1.59997512	      0.86959314	      0.26085737	     -0.44133247	      3.11691102	      5.59613134	      5.43919414	      0.09493185	      4.29738337	    -17.26738962	      0.00000000	      2.39297564	     -3.85522084	     -9.24673543	     10.47034232	      0.18274195	      3.53959253	    -17.34941449	      0.00000000	      0.00190919	     -0.02041880	      0.08435926	      0.00354555	     -0.02715700	      0.08963171	      0.00313660	     -0.04964626	      0.08963171	      0.00218201	     -0.04964626	      0.07381435	      0.00177287	     -0.04163801	      0.06854190	      0.00109091	     -0.03162872	      0.06326944	      0.01363713	     -0.23098151	      0.46918088	      0.00000000	      0.00000000	     -0.00000000	      0.00000000	     -0.00000000	     -3.36794098	      6.99209535	    -36.96139925	     38.79183974	     31.85232268	      0.00000000	      5.00000014	     -4.89610421	      6.04187668	    -34.74026958	     44.36513089	     33.25319433	      0.00000000	      5.00000014
     11.26666667	     -0.82906737	     -2.41903947	     -4.90846684	     -1.59947246	      0.86943444	      0.26090778	     -0.61680299	      3.26840584	      5.13437720	      5.19358778	      0.09064521	      4.24017865	    -17.03038681	      0.00000000	      2.17123518	     -3.89400510	     -9.83875847	     10.08659140	      0.17604423	      3.66880628	    -16.98022694	      0.00000000	      0.00344921	     -0.00788080	      0.05420540	      0.00640553	     -0.01048147	      0.05759324	      0.00566671	     -0.01916139	      0.05759324	      0.00394210	     -0.01916139	      0.04742973	      0.00320294	     -0.01607054	      0.04404189	      0.00197088	     -0.01220737	      0.04065405	      0.02463737	     -0.08914923	      0.30147420	      0.00000000	      0.00000000	     -0.00000000	      0.00000000	     -0.00000000	     -3.39063727	      6.99635386	    -37.03528754	     38.74896833	     32.35746124	      0.00000000	      5.00000014	     -4.97027852	      6.07794342	    -34.81683519	     44.45592848	     33.72807633	      0.00000000	      5.00000014
     11.30000000	     -0.82002111	     -2.55146763	     -4.60459966	     -1.59893322	      0.86943692	      0.26081242	     -0.81613201	      3.42201447	      4.24078085	      4.94019885	      0.08622274	      4.24629277	    -16.61802431	      0.00000000	      1.90788361	     -3.94039367	    -10.43086498	      9.58581464	      0.16730403	      3.76455207	    -16.54950576	      0.00000000	      0.00260310	      0.00333288	     -0.02526739	      0.00483421	      0.00443273	     -0.02684660	      0.00427662	      0.00810356	     -0.02684660	      0.00297508	      0.00810356	     -0.02210897	      0.00241723	      0.00679640	     -0.02052975	      0.00148741	      0.00516263	     -0.01895054	      0.01859365	      0.03770218	     -0.14052965	      0.00000000	      0.00000000	     -0.00000000	      0.00000000	     -0.00000000	     -3.37312442	      6.99810797	    -37.03836652	     38.67122497	     32.76041412	      0.00000000	      5.00000014	     -5.05981873	      6.11114849	    -35.03775212	     44.52502269	     34.10166950	      0.00000000	      5.00000014
     11.33333333	     -0.82405604	     -2.58907803	     -4.53388747	     -1.59859616	      0.86957555	      0.26086073	     -0.87573469	      3.46350995	      3.82868955	      4.86918592	      0.08498333	      4.19297613	    -16.47620456	      0.00000000	      1.66066584	     -3.88975051	    -10.80855653	      9.07851214	      0.15844993	      3.58165817	    -16.73761134	      0.00000000	      0.00205818	      0.00452929	     -0.07316190	      0.00382224	      0.00602396	     -0.07773452	      0.00338138	      0.01101252	     -0.07773452	      0.00235229	      0.01101252	     -0.06401666	      0.00191122	      0.00923613	     -0.05944404	      0.00117604	      0.00701587	     -0.05487142	      0.01470135	      0.05123626	     -0.40690453	      0.00000000	      0.00000000	     -0.00000000	      0.00000000	     -0.00000000	     -3.30752382	      6.96750841	    -36.85510066	     38.45261808	     33.04276263	      0.00000000	      5.00000014	     -5.07198582	      6.17603502	    -35.62504252	     44.46721980	     34.50977889	      0.00000000	      5.00000014
     11.36666667	     -0.83911940	     -2.60524956	     -4.62725243	     -1.59835059	      0.86978295	      0.26113083	     -0.88366253	      3.49510349	      3.80323283	      4.83886145	      0.08445406	      4.04618726	    -16.59965387	      0.00000000	      1.43496213	     -3.87992499	    -11.44243547	      8.62518738	      0.15053792	      3.44289130	    -16.52873820	      0.00000000	      0.00202150	      0.00281732	     -0.08682707	      0.00375412	      0.00374704	     -0.09225376	      0.00332112	      0.00685004	     -0.09225376	      0.00231037	      0.00685004	     -0.07597369	      0.00187716	      0.00574508	     -0.07054700	      0.00115508	      0.00436403	     -0.06512030	      0.01443934	      0.03187011	     -0.48290613	      0.00000000	      0.00000000	     -0.00000000	      0.00000000	     -0.00000000	     -3.24774957	      6.98660322	    -36.76662826	     38.31496163	     32.38408228	      0.00000000	      5.00000014	     -5.11792785	      6.14478512	    -35.82256155	     44.44625952	     34.00149152	      0.00000000	      5.00000014
     11.40000000	     -0.85842560	     -2.57184995	     -4.79703152	     -1.59828149	      0.87001596	      0.26137840	     -0.79022569	      3.46901075	      3.90231736	      4.97042105	      0.08675021	      4.00198947	    -16.64388934	      0.00000000	      1.36544697	     -3.84947521	    -11.65118084	      8.42720037	      0.14708239	      3.26109484	    -16.57391511	      0.00000000	      0.00022843	     -0.00262626	     -0.07926306	      0.00042422	     -0.00349293	     -0.08421701	      0.00037529	     -0.00638549	     -0.08421701	      0.00026107	     -0.00638549	     -0.06935518	      0.00021212	     -0.00535547	     -0.06440124	      0.00013052	     -0.00406808	     -0.05944730	      0.00163165	     -0.02970877	     -0.44083738	      0.00000000	      0.00000000	     -0.00000000	      0.00000000	     -0.00000000	     -3.16077334	      6.99888896	    -36.77879398	     38.11418643	     32.35299609	      0.00000000	      5.00000014	     -5.12701331	      6.07848898	    -35.93575535	     44.34650114	     33.98724217	      0.00000000	      5.00000014
     11.43333333	     -0.90416293	     -2.53066748	     -5.05134544	     -1.59823854	      0.87031719	      0.26170186	     -0.65075028	      3.43474555	      3.85997980	      5.12475901	      0.08944392	      3.99586568	    -16.36376502	      0.00000000	      1.47094531	     -3.87395348	    -11.86803884	      8.52178628	      0.14873323	      3.23163603	    -16.38928214	      0.00000000	      0.00300301	     -0.00727385	     -0.05214105	      0.00557689	     -0.00967423	     -0.05539987	      0.00493365	     -0.01768565	     -0.05539987	      0.00343214	     -0.01768565	     -0.04562342	      0.00278860	     -0.01483284	     -0.04236460	      0.00171592	     -0.01126720	     -0.03910579	      0.02145021	     -0.08228329	     -0.28999289	      0.00000000	      0.00000000	     -0.00000000	      0.00000000	     -0.00000000	     -3.09833845	      6.99909531	    -36.78016357	     37.89561763	     32.40452080	      0.00000000	      5.00000014	     -5.12630592	      5.99589387	    -36.00310646	     44.17601354	     34.03691220	      0.00000000	      5.00000014
     11.46666667	     -0.92702260	     -2.54641258	     -5.33116516	     -1.59814441	      0.87061936	      0.26191499	     -0.61224395	      3.44568458	      4.53147069	      5.18931827	      0.09057069	      3.75492487	    -16.73740688	      0.00000000	      1.79592593	     -3.99280114	    -11.44702895	      9.13022886	      0.15935256	      3.40087166	    -16.79175762	      0.00000000	      0.00194206	     -0.00215496	     -0.01392672	      0.00360660	     -0.00286609	     -0.01479714	      0.00319061	     -0.00523956	     -0.01479714	      0.00221958	     -0.00523956	     -0.01218588	      0.00180340	     -0.00439439	     -0.01131546	      0.00110969	     -0.00333803	     -0.01044504	      0.01387196	     -0.02437729	     -0.07745622	      0.00000000	      0.00000000	     -0.00000000	      0.00000000	     -0.00000000	     -3.17173066	      6.89954321	    -36.25246467	     38.08015829	     30.49860562	      0.00000000	      5.00000014	     -5.14706388	      5.99547046	    -36.03834986	     44.12176793	     33.36441404	      0.00000000	      5.00000014
     11.50000000	     -0.95832703	     -2.57543769	     -5.47652700	     -1.59816731	      0.87099443	      0.26199973	     -0.56353804	      3.46437949	      4.59301940	      5.23645933	      0.09139346	      3.53099478	    -16.65784398	      0.00000000	      2.12669856	     -4.11622176	    -11.28879724	      9.68796255	      0.16908684	      3.69033012	    -16.74568082	      0.00000000	      0.00182121	      0.00620932	      0.01118146	      0.00338217	      0.00825840	      0.01188030	      0.00299207	      0.01509734	      0.01188030	      0.00208146	      0.01509734	      0.00978378	      0.00169118	      0.01266205	      0.00908494	      0.00104064	      0.00961824	      0.00838610	      0.01300872	      0.07024107	      0.06218794	      0.00000000	      0.00000000	     -0.00000000	      0.00000000	     -0.00000000	     -3.16532256	      6.86902301	    -36.45669839	     38.08761684	     31.56812470	      0.00000000	      5.00000014	     -5.10079612	      5.96890405	    -36.03788787	     43.87799963	     34.02335570	      0.00000000	      5.00000014
     11.53333333	     -0.99599829	     -2.60569718	     -5.62670265	     -1.59829285	      0.87123025	      0.26213531	     -0.49663128	      3.48177548	      4.68256621	      5.30017326	      0.09250547	      3.37507916	    -16.58091840	      0.00000000	      2.35447592	     -4.19544832	    -11.31020381	     10.08067308	      0.17594094	      4.06055830	    -16.50530136	      0.00000000	      0.00166144	      0.01368202	      0.05083719	      0.00308547	      0.01819708	      0.05401451	      0.00272959	      0.03326645	      0.05401451	      0.00189887	      0.03326645	      0.04448254	      0.00154282	      0.02790037	      0.04130522	      0.00094935	      0.02119344	      0.03812789	      0.01186753	      0.15477371	      0.28274119	      0.00000000	      0.00000000	     -0.00000000	      0.00000000	     -0.00000000	     -3.23125980	      6.73031617	    -35.98878669	     38.14439332	     31.13566366	      0.00000000	      5.00000014	     -5.04022769	      5.99215244	    -36.01624363	     43.77923806	     33.76243562	      0.00000000	      5.00000014
